<svg width="90" height="90" viewBox="0 0 90 90" fill="none" xmlns="http://www.w3.org/2000/svg">
<rect x="0.5" y="0.5" width="89" height="89" stroke="black"/>
<rect x="14" y="10" width="44" height="29" stroke="black"/>
<rect x="6.8" y="49.5" width="11.6" height="18" stroke="black"/>
<rect x="22.4" y="49.5" width="11.6" height="18" stroke="black"/>
<rect x="38" y="49.5" width="11.6" height="18" stroke="black"/>
<rect x="53.6" y="49.5" width="11.6" height="18" stroke="black"/>
<rect x="74.5" y="32.5" width="9" height="5" stroke="black"/>
<rect x="74.5" y="42.5" width="9" height="5" stroke="black"/>
<rect x="74.5" y="52.5" width="9" height="5" stroke="black"/>
<rect x="74.5" y="62.5" width="9" height="5" stroke="black"/>
<rect x="74.5" y="72.5" width="9" height="5" stroke="black"/>
<circle cx="12.6" cy="76" r="3.2" stroke="black"/>
<circle cx="79" cy="11" r="2" stroke="black"/>
<circle cx="59.4" cy="76" r="3.2" stroke="black"/>
<circle cx="43.8" cy="76" r="3.2" stroke="black"/>
<circle cx="28.2" cy="76" r="3.2" stroke="black"/>
</svg>
